<svg xmlns="http://www.w3.org/2000/svg" version="1.1" xmlns:xlink="http://www.w3.org/1999/xlink" xmlns:svgjs="http://svgjs.com/svgjs" width="1440" height="560" preserveAspectRatio="none" viewBox="0 0 1440 560"><g mask="url(&quot;#SvgjsMask1000&quot;)" fill="none"><rect width="1440" height="560" x="0" y="0" fill="#0e2a47"></rect><path d="M-67.49 387.31L-67.49 387.31" stroke="#132e65" stroke-width="1.5"></path><path d="M-67.49 387.31L59.82 382.43" stroke="#132e65" stroke-width="1.5"></path><path d="M-67.49 387.31L-57.32 519.58" stroke="#132e65" stroke-width="1.5"></path><path d="M-67.49 387.31L111.89 511.93" stroke="#132e65" stroke-width="1.5"></path><path d="M-67.49 387.31L229.86 349.44" stroke="#132e65" stroke-width="1.5"></path><path d="M-67.49 387.31L-108.3 690.39" stroke="#132e65" stroke-width="1.5"></path><path d="M-57.32 519.58L-57.32 519.58" stroke="#132e65" stroke-width="1.5"></path><path d="M-57.32 519.58L111.89 511.93" stroke="#132e65" stroke-width="1.5"></path><path d="M-57.32 519.58L-108.3 690.39" stroke="#132e65" stroke-width="1.5"></path><path d="M-57.32 519.58L59.82 382.43" stroke="#132e65" stroke-width="1.5"></path><path d="M-108.3 690.39L-108.3 690.39" stroke="#132e65" stroke-width="1.5"></path><path d="M-108.3 690.39L85.46 653.4" stroke="#132e65" stroke-width="1.5"></path><path d="M-108.3 690.39L111.89 511.93" stroke="#132e65" stroke-width="1.5"></path><path d="M59.82 382.43L59.82 382.43" stroke="#132e65" stroke-width="1.5"></path><path d="M59.82 382.43L111.89 511.93" stroke="#132e65" stroke-width="1.5"></path><path d="M59.82 382.43L229.86 349.44" stroke="#132e65" stroke-width="1.5"></path><path d="M111.89 511.93L111.89 511.93" stroke="#132e65" stroke-width="1.5"></path><path d="M111.89 511.93L220.44 540.31" stroke="#132e65" stroke-width="1.5"></path><path d="M111.89 511.93L85.46 653.4" stroke="#132e65" stroke-width="1.5"></path><path d="M85.46 653.4L85.46 653.4" stroke="#132e65" stroke-width="1.5"></path><path d="M85.46 653.4L220.44 540.31" stroke="#132e65" stroke-width="1.5"></path><path d="M85.46 653.4L259.1 691.69" stroke="#132e65" stroke-width="1.5"></path><path d="M85.46 653.4L-57.32 519.58" stroke="#132e65" stroke-width="1.5"></path><path d="M85.46 653.4L59.82 382.43" stroke="#132e65" stroke-width="1.5"></path><path d="M229.86 349.44L229.86 349.44" stroke="#132e65" stroke-width="1.5"></path><path d="M229.86 349.44L392.82 344.54" stroke="#132e65" stroke-width="1.5"></path><path d="M220.44 540.31L220.44 540.31" stroke="#132e65" stroke-width="1.5"></path><path d="M220.44 540.31L343.5 499.6" stroke="#132e65" stroke-width="1.5"></path><path d="M220.44 540.31L259.1 691.69" stroke="#132e65" stroke-width="1.5"></path><path d="M220.44 540.31L229.86 349.44" stroke="#132e65" stroke-width="1.5"></path><path d="M259.1 691.69L259.1 691.69" stroke="#132e65" stroke-width="1.5"></path><path d="M259.1 691.69L382.21 707.48" stroke="#132e65" stroke-width="1.5"></path><path d="M259.1 691.69L343.5 499.6" stroke="#132e65" stroke-width="1.5"></path><path d="M259.1 691.69L111.89 511.93" stroke="#132e65" stroke-width="1.5"></path><path d="M392.82 344.54L392.82 344.54" stroke="#132e65" stroke-width="1.5"></path><path d="M392.82 344.54L493.07 341.77" stroke="#132e65" stroke-width="1.5"></path><path d="M392.82 344.54L343.5 499.6" stroke="#132e65" stroke-width="1.5"></path><path d="M343.5 499.6L343.5 499.6" stroke="#132e65" stroke-width="1.5"></path><path d="M343.5 499.6L508.03 508.33" stroke="#132e65" stroke-width="1.5"></path><path d="M343.5 499.6L229.86 349.44" stroke="#132e65" stroke-width="1.5"></path><path d="M343.5 499.6L497.25 642.17" stroke="#132e65" stroke-width="1.5"></path><path d="M382.21 707.48L382.21 707.48" stroke="#132e65" stroke-width="1.5"></path><path d="M382.21 707.48L497.25 642.17" stroke="#132e65" stroke-width="1.5"></path><path d="M493.07 341.77L493.07 341.77" stroke="#132e65" stroke-width="1.5"></path><path d="M493.07 341.77L638.22 339.58" stroke="#132e65" stroke-width="1.5"></path><path d="M493.07 341.77L508.03 508.33" stroke="#132e65" stroke-width="1.5"></path><path d="M508.03 508.33L508.03 508.33" stroke="#132e65" stroke-width="1.5"></path><path d="M508.03 508.33L497.25 642.17" stroke="#132e65" stroke-width="1.5"></path><path d="M508.03 508.33L657.51 499.54" stroke="#132e65" stroke-width="1.5"></path><path d="M497.25 642.17L497.25 642.17" stroke="#132e65" stroke-width="1.5"></path><path d="M497.25 642.17L660.44 692.99" stroke="#132e65" stroke-width="1.5"></path><path d="M638.22 339.58L638.22 339.58" stroke="#132e65" stroke-width="1.5"></path><path d="M638.22 339.58L657.51 499.54" stroke="#132e65" stroke-width="1.5"></path><path d="M657.51 499.54L657.51 499.54" stroke="#132e65" stroke-width="1.5"></path><path d="M657.51 499.54L803.15 516.25" stroke="#132e65" stroke-width="1.5"></path><path d="M657.51 499.54L791.17 409.81" stroke="#132e65" stroke-width="1.5"></path><path d="M660.44 692.99L660.44 692.99" stroke="#132e65" stroke-width="1.5"></path><path d="M660.44 692.99L795.22 676.75" stroke="#132e65" stroke-width="1.5"></path><path d="M660.44 692.99L657.51 499.54" stroke="#132e65" stroke-width="1.5"></path><path d="M660.44 692.99L803.15 516.25" stroke="#132e65" stroke-width="1.5"></path><path d="M793.61 193.16L793.61 193.16" stroke="#132e65" stroke-width="1.5"></path><path d="M793.61 193.16L987.45 221.3" stroke="#132e65" stroke-width="1.5"></path><path d="M791.17 409.81L791.17 409.81" stroke="#132e65" stroke-width="1.5"></path><path d="M791.17 409.81L803.15 516.25" stroke="#132e65" stroke-width="1.5"></path><path d="M791.17 409.81L638.22 339.58" stroke="#132e65" stroke-width="1.5"></path><path d="M803.15 516.25L803.15 516.25" stroke="#132e65" stroke-width="1.5"></path><path d="M803.15 516.25L795.22 676.75" stroke="#132e65" stroke-width="1.5"></path><path d="M803.15 516.25L965.12 518.88" stroke="#132e65" stroke-width="1.5"></path><path d="M803.15 516.25L971.17 396.4" stroke="#132e65" stroke-width="1.5"></path><path d="M795.22 676.75L795.22 676.75" stroke="#132e65" stroke-width="1.5"></path><path d="M795.22 676.75L961.88 658.26" stroke="#132e65" stroke-width="1.5"></path><path d="M795.22 676.75L657.51 499.54" stroke="#132e65" stroke-width="1.5"></path><path d="M1012.04 -95.42L1012.04 -95.42" stroke="#132e65" stroke-width="1.5"></path><path d="M1012.04 -95.42L1100.55 -66.28" stroke="#132e65" stroke-width="1.5"></path><path d="M1012.04 -95.42L1007.26 51.25" stroke="#132e65" stroke-width="1.5"></path><path d="M1012.04 -95.42L1107.9 78.52" stroke="#132e65" stroke-width="1.5"></path><path d="M1012.04 -95.42L1287.34 -101.61" stroke="#132e65" stroke-width="1.5"></path><path d="M1007.26 51.25L1007.26 51.25" stroke="#132e65" stroke-width="1.5"></path><path d="M1007.26 51.25L1107.9 78.52" stroke="#132e65" stroke-width="1.5"></path><path d="M1007.26 51.25L1100.55 -66.28" stroke="#132e65" stroke-width="1.5"></path><path d="M1007.26 51.25L987.45 221.3" stroke="#132e65" stroke-width="1.5"></path><path d="M987.45 221.3L987.45 221.3" stroke="#132e65" stroke-width="1.5"></path><path d="M987.45 221.3L1118.29 238.72" stroke="#132e65" stroke-width="1.5"></path><path d="M987.45 221.3L971.17 396.4" stroke="#132e65" stroke-width="1.5"></path><path d="M971.17 396.4L971.17 396.4" stroke="#132e65" stroke-width="1.5"></path><path d="M971.17 396.4L965.12 518.88" stroke="#132e65" stroke-width="1.5"></path><path d="M971.17 396.4L1110.78 405.15" stroke="#132e65" stroke-width="1.5"></path><path d="M965.12 518.88L965.12 518.88" stroke="#132e65" stroke-width="1.5"></path><path d="M965.12 518.88L961.88 658.26" stroke="#132e65" stroke-width="1.5"></path><path d="M965.12 518.88L1110.78 405.15" stroke="#132e65" stroke-width="1.5"></path><path d="M965.12 518.88L791.17 409.81" stroke="#132e65" stroke-width="1.5"></path><path d="M965.12 518.88L795.22 676.75" stroke="#132e65" stroke-width="1.5"></path><path d="M961.88 658.26L961.88 658.26" stroke="#132e65" stroke-width="1.5"></path><path d="M961.88 658.26L1126.96 698.3" stroke="#132e65" stroke-width="1.5"></path><path d="M961.88 658.26L803.15 516.25" stroke="#132e65" stroke-width="1.5"></path><path d="M961.88 658.26L971.17 396.4" stroke="#132e65" stroke-width="1.5"></path><path d="M1100.55 -66.28L1100.55 -66.28" stroke="#132e65" stroke-width="1.5"></path><path d="M1100.55 -66.28L1107.9 78.52" stroke="#132e65" stroke-width="1.5"></path><path d="M1100.55 -66.28L1257.19 40.2" stroke="#132e65" stroke-width="1.5"></path><path d="M1107.9 78.52L1107.9 78.52" stroke="#132e65" stroke-width="1.5"></path><path d="M1118.29 238.72L1118.29 238.72" stroke="#132e65" stroke-width="1.5"></path><path d="M1118.29 238.72L1107.9 78.52" stroke="#132e65" stroke-width="1.5"></path><path d="M1118.29 238.72L1110.78 405.15" stroke="#132e65" stroke-width="1.5"></path><path d="M1118.29 238.72L1300.25 238.52" stroke="#132e65" stroke-width="1.5"></path><path d="M1118.29 238.72L1258.11 381.68" stroke="#132e65" stroke-width="1.5"></path><path d="M1110.78 405.15L1110.78 405.15" stroke="#132e65" stroke-width="1.5"></path><path d="M1110.78 405.15L1258.11 381.68" stroke="#132e65" stroke-width="1.5"></path><path d="M1126.96 698.3L1126.96 698.3" stroke="#132e65" stroke-width="1.5"></path><path d="M1126.96 698.3L1242.41 690.96" stroke="#132e65" stroke-width="1.5"></path><path d="M1126.96 698.3L965.12 518.88" stroke="#132e65" stroke-width="1.5"></path><path d="M1126.96 698.3L1110.78 405.15" stroke="#132e65" stroke-width="1.5"></path><path d="M1287.34 -101.61L1287.34 -101.61" stroke="#132e65" stroke-width="1.5"></path><path d="M1287.34 -101.61L1257.19 40.2" stroke="#132e65" stroke-width="1.5"></path><path d="M1287.34 -101.61L1447.54 -85.27" stroke="#132e65" stroke-width="1.5"></path><path d="M1287.34 -101.61L1100.55 -66.28" stroke="#132e65" stroke-width="1.5"></path><path d="M1287.34 -101.61L1107.9 78.52" stroke="#132e65" stroke-width="1.5"></path><path d="M1287.34 -101.61L1455.01 110.78" stroke="#132e65" stroke-width="1.5"></path><path d="M1257.19 40.2L1257.19 40.2" stroke="#132e65" stroke-width="1.5"></path><path d="M1300.25 238.52L1300.25 238.52" stroke="#132e65" stroke-width="1.5"></path><path d="M1300.25 238.52L1402.25 258.19" stroke="#132e65" stroke-width="1.5"></path><path d="M1300.25 238.52L1258.11 381.68" stroke="#132e65" stroke-width="1.5"></path><path d="M1300.25 238.52L1419.18 387.71" stroke="#132e65" stroke-width="1.5"></path><path d="M1300.25 238.52L1455.01 110.78" stroke="#132e65" stroke-width="1.5"></path><path d="M1258.11 381.68L1258.11 381.68" stroke="#132e65" stroke-width="1.5"></path><path d="M1258.11 381.68L1419.18 387.71" stroke="#132e65" stroke-width="1.5"></path><path d="M1258.11 381.68L1402.25 258.19" stroke="#132e65" stroke-width="1.5"></path><path d="M1242.41 690.96L1242.41 690.96" stroke="#132e65" stroke-width="1.5"></path><path d="M1242.41 690.96L1433.78 698.03" stroke="#132e65" stroke-width="1.5"></path><path d="M1447.54 -85.27L1447.54 -85.27" stroke="#132e65" stroke-width="1.5"></path><path d="M1447.54 -85.27L1455.01 110.78" stroke="#132e65" stroke-width="1.5"></path><path d="M1455.01 110.78L1455.01 110.78" stroke="#132e65" stroke-width="1.5"></path><path d="M1455.01 110.78L1543.57 192.23" stroke="#132e65" stroke-width="1.5"></path><path d="M1455.01 110.78L1590.65 84.15" stroke="#132e65" stroke-width="1.5"></path><path d="M1455.01 110.78L1402.25 258.19" stroke="#132e65" stroke-width="1.5"></path><path d="M1402.25 258.19L1402.25 258.19" stroke="#132e65" stroke-width="1.5"></path><path d="M1402.25 258.19L1419.18 387.71" stroke="#132e65" stroke-width="1.5"></path><path d="M1402.25 258.19L1543.57 192.23" stroke="#132e65" stroke-width="1.5"></path><path d="M1402.25 258.19L1546.62 361.5" stroke="#132e65" stroke-width="1.5"></path><path d="M1419.18 387.71L1419.18 387.71" stroke="#132e65" stroke-width="1.5"></path><path d="M1419.18 387.71L1433.06 508.76" stroke="#132e65" stroke-width="1.5"></path><path d="M1419.18 387.71L1546.62 361.5" stroke="#132e65" stroke-width="1.5"></path><path d="M1433.06 508.76L1433.06 508.76" stroke="#132e65" stroke-width="1.5"></path><path d="M1433.06 508.76L1551.26 524.55" stroke="#132e65" stroke-width="1.5"></path><path d="M1433.06 508.76L1546.62 361.5" stroke="#132e65" stroke-width="1.5"></path><path d="M1433.06 508.76L1433.78 698.03" stroke="#132e65" stroke-width="1.5"></path><path d="M1433.06 508.76L1258.11 381.68" stroke="#132e65" stroke-width="1.5"></path><path d="M1433.78 698.03L1433.78 698.03" stroke="#132e65" stroke-width="1.5"></path><path d="M1433.78 698.03L1598.89 707.37" stroke="#132e65" stroke-width="1.5"></path><path d="M1433.78 698.03L1551.26 524.55" stroke="#132e65" stroke-width="1.5"></path><path d="M1590.65 84.15L1590.65 84.15" stroke="#132e65" stroke-width="1.5"></path><path d="M1590.65 84.15L1543.57 192.23" stroke="#132e65" stroke-width="1.5"></path><path d="M1590.65 84.15L1447.54 -85.27" stroke="#132e65" stroke-width="1.5"></path><path d="M1590.65 84.15L1402.25 258.19" stroke="#132e65" stroke-width="1.5"></path><path d="M1590.65 84.15L1546.62 361.5" stroke="#132e65" stroke-width="1.5"></path><path d="M1590.65 84.15L1300.25 238.52" stroke="#132e65" stroke-width="1.5"></path><path d="M1543.57 192.23L1543.57 192.23" stroke="#132e65" stroke-width="1.5"></path><path d="M1543.57 192.23L1546.62 361.5" stroke="#132e65" stroke-width="1.5"></path><path d="M1543.57 192.23L1419.18 387.71" stroke="#132e65" stroke-width="1.5"></path><path d="M1546.62 361.5L1546.62 361.5" stroke="#132e65" stroke-width="1.5"></path><path d="M1546.62 361.5L1551.26 524.55" stroke="#132e65" stroke-width="1.5"></path><path d="M1551.26 524.55L1551.26 524.55" stroke="#132e65" stroke-width="1.5"></path><path d="M1598.89 707.37L1598.89 707.37" stroke="#132e65" stroke-width="1.5"></path><path d="M1598.89 707.37L1551.26 524.55" stroke="#132e65" stroke-width="1.5"></path><path d="M1598.89 707.37L1433.06 508.76" stroke="#132e65" stroke-width="1.5"></path><path d="M1598.89 707.37L1546.62 361.5" stroke="#132e65" stroke-width="1.5"></path><path d="M1598.89 707.37L1242.41 690.96" stroke="#132e65" stroke-width="1.5"></path><path d="M1598.89 707.37L1419.18 387.71" stroke="#132e65" stroke-width="1.5"></path><circle r="5" cx="-67.49" cy="387.31" fill="#132e65"></circle><circle r="5" cx="-57.32" cy="519.58" fill="#132e65"></circle><circle r="5" cx="-108.3" cy="690.39" fill="#132e65"></circle><circle r="5" cx="59.82" cy="382.43" fill="#132e65"></circle><circle r="5" cx="111.89" cy="511.93" fill="#132e65"></circle><circle r="5" cx="85.46" cy="653.4" fill="#132e65"></circle><circle r="5" cx="229.86" cy="349.44" fill="#132e65"></circle><circle r="5" cx="220.44" cy="540.31" fill="#132e65"></circle><circle r="5" cx="259.1" cy="691.69" fill="#132e65"></circle><circle r="5" cx="392.82" cy="344.54" fill="#132e65"></circle><circle r="5" cx="343.5" cy="499.6" fill="#132e65"></circle><circle r="5" cx="382.21" cy="707.48" fill="#132e65"></circle><circle r="5" cx="493.07" cy="341.77" fill="#132e65"></circle><circle r="5" cx="508.03" cy="508.33" fill="#132e65"></circle><circle r="5" cx="497.25" cy="642.17" fill="#132e65"></circle><circle r="5" cx="638.22" cy="339.58" fill="#132e65"></circle><circle r="5" cx="657.51" cy="499.54" fill="#132e65"></circle><circle r="5" cx="660.44" cy="692.99" fill="#132e65"></circle><circle r="5" cx="793.61" cy="193.16" fill="#132e65"></circle><circle r="5" cx="791.17" cy="409.81" fill="#132e65"></circle><circle r="5" cx="803.15" cy="516.25" fill="#132e65"></circle><circle r="5" cx="795.22" cy="676.75" fill="#132e65"></circle><circle r="5" cx="1012.04" cy="-95.42" fill="#132e65"></circle><circle r="5" cx="1007.26" cy="51.25" fill="#132e65"></circle><circle r="5" cx="987.45" cy="221.3" fill="#132e65"></circle><circle r="5" cx="971.17" cy="396.4" fill="#132e65"></circle><circle r="5" cx="965.12" cy="518.88" fill="#132e65"></circle><circle r="5" cx="961.88" cy="658.26" fill="#132e65"></circle><circle r="5" cx="1100.55" cy="-66.28" fill="#132e65"></circle><circle r="5" cx="1107.9" cy="78.52" fill="#132e65"></circle><circle r="5" cx="1118.29" cy="238.72" fill="#132e65"></circle><circle r="5" cx="1110.78" cy="405.15" fill="#132e65"></circle><circle r="5" cx="1126.96" cy="698.3" fill="#132e65"></circle><circle r="5" cx="1287.34" cy="-101.61" fill="#132e65"></circle><circle r="5" cx="1257.19" cy="40.2" fill="#132e65"></circle><circle r="5" cx="1300.25" cy="238.52" fill="#132e65"></circle><circle r="5" cx="1258.11" cy="381.68" fill="#132e65"></circle><circle r="5" cx="1242.41" cy="690.96" fill="#132e65"></circle><circle r="5" cx="1447.54" cy="-85.27" fill="#132e65"></circle><circle r="5" cx="1455.01" cy="110.78" fill="#132e65"></circle><circle r="5" cx="1402.25" cy="258.19" fill="#132e65"></circle><circle r="5" cx="1419.18" cy="387.71" fill="#132e65"></circle><circle r="5" cx="1433.06" cy="508.76" fill="#132e65"></circle><circle r="5" cx="1433.78" cy="698.03" fill="#132e65"></circle><circle r="5" cx="1590.65" cy="84.15" fill="#132e65"></circle><circle r="5" cx="1543.57" cy="192.23" fill="#132e65"></circle><circle r="5" cx="1546.62" cy="361.5" fill="#132e65"></circle><circle r="5" cx="1551.26" cy="524.55" fill="#132e65"></circle><circle r="5" cx="1598.89" cy="707.37" fill="#132e65"></circle><path d="M516.54 689.99L516.54 689.99" stroke="hsl(228.5, 77.2%, 51.5%)" stroke-width="1.5"></path><path d="M516.54 689.99L378.24 711.44" stroke="hsl(228.5, 77.2%, 51.5%)" stroke-width="1.5"></path><path d="M516.54 689.99L556.92 554.38" stroke="hsl(228.5, 77.2%, 51.5%)" stroke-width="1.5"></path><path d="M651.5 541.3L651.5 541.3" stroke="hsl(228.5, 77.2%, 51.5%)" stroke-width="1.5"></path><path d="M651.5 541.3L556.92 554.38" stroke="hsl(228.5, 77.2%, 51.5%)" stroke-width="1.5"></path><path d="M651.5 541.3L668.81 640.72" stroke="hsl(228.5, 77.2%, 51.5%)" stroke-width="1.5"></path><path d="M651.5 541.3L648.17 372.34" stroke="hsl(228.5, 77.2%, 51.5%)" stroke-width="1.5"></path><path d="M651.5 541.3L811.14 653.59" stroke="hsl(228.5, 77.2%, 51.5%)" stroke-width="1.5"></path><path d="M651.5 541.3L516.54 689.99" stroke="hsl(228.5, 77.2%, 51.5%)" stroke-width="1.5"></path><path d="M1012.3 666.33L1012.3 666.33" stroke="hsl(228.5, 77.2%, 51.5%)" stroke-width="1.5"></path><path d="M1012.3 666.33L954.1 546.07" stroke="hsl(228.5, 77.2%, 51.5%)" stroke-width="1.5"></path><path d="M1012.3 666.33L1101.27 561.93" stroke="hsl(228.5, 77.2%, 51.5%)" stroke-width="1.5"></path><path d="M1012.3 666.33L1158.67 700.55" stroke="hsl(228.5, 77.2%, 51.5%)" stroke-width="1.5"></path><path d="M1012.3 666.33L811.14 653.59" stroke="hsl(228.5, 77.2%, 51.5%)" stroke-width="1.5"></path><path d="M1305.74 -52.24L1305.74 -52.24" stroke="hsl(228.5, 77.2%, 51.5%)" stroke-width="1.5"></path><path d="M1305.74 -52.24L1452.78 -44.09" stroke="hsl(228.5, 77.2%, 51.5%)" stroke-width="1.5"></path><path d="M1276.87 402.58L1276.87 402.58" stroke="hsl(228.5, 77.2%, 51.5%)" stroke-width="1.5"></path><path d="M1276.87 402.58L1391.41 390.9" stroke="hsl(228.5, 77.2%, 51.5%)" stroke-width="1.5"></path><path d="M1276.87 402.58L1302.36 553.76" stroke="hsl(228.5, 77.2%, 51.5%)" stroke-width="1.5"></path><path d="M1251.15 652.44L1251.15 652.44" stroke="hsl(228.5, 77.2%, 51.5%)" stroke-width="1.5"></path><path d="M1251.15 652.44L1158.67 700.55" stroke="hsl(228.5, 77.2%, 51.5%)" stroke-width="1.5"></path><path d="M1251.15 652.44L1302.36 553.76" stroke="hsl(228.5, 77.2%, 51.5%)" stroke-width="1.5"></path><path d="M1251.15 652.44L1101.27 561.93" stroke="hsl(228.5, 77.2%, 51.5%)" stroke-width="1.5"></path><path d="M1251.15 652.44L1402.33 546.5" stroke="hsl(228.5, 77.2%, 51.5%)" stroke-width="1.5"></path><path d="M1251.15 652.44L1458.74 668.06" stroke="hsl(228.5, 77.2%, 51.5%)" stroke-width="1.5"></path><path d="M1251.15 652.44L1012.3 666.33" stroke="hsl(228.5, 77.2%, 51.5%)" stroke-width="1.5"></path><path d="M1594.99 68.13L1594.99 68.13" stroke="hsl(228.5, 77.2%, 51.5%)" stroke-width="1.5"></path><path d="M1594.99 68.13L1592.28 194.39" stroke="hsl(228.5, 77.2%, 51.5%)" stroke-width="1.5"></path><path d="M1594.99 68.13L1435.72 82.71" stroke="hsl(228.5, 77.2%, 51.5%)" stroke-width="1.5"></path><path d="M1594.99 68.13L1575.94 -101.68" stroke="hsl(228.5, 77.2%, 51.5%)" stroke-width="1.5"></path><path d="M1594.99 68.13L1452.78 -44.09" stroke="hsl(228.5, 77.2%, 51.5%)" stroke-width="1.5"></path><path d="M1594.99 68.13L1287.87 112.42" stroke="hsl(228.5, 77.2%, 51.5%)" stroke-width="1.5"></path><path d="M1594.99 68.13L1305.74 -52.24" stroke="hsl(228.5, 77.2%, 51.5%)" stroke-width="1.5"></path><path d="M-77.51 537.35L-77.51 537.35" stroke="hsl(228.5, 77.2%, 51.5%)" stroke-width="1.5"></path><path d="M-77.51 537.35L-95.29 649.02" stroke="hsl(228.5, 77.2%, 51.5%)" stroke-width="1.5"></path><path d="M-77.51 537.35L38.83 515.65" stroke="hsl(228.5, 77.2%, 51.5%)" stroke-width="1.5"></path><path d="M-77.51 537.35L94.77 669.91" stroke="hsl(228.5, 77.2%, 51.5%)" stroke-width="1.5"></path><path d="M-77.51 537.35L190.75 553.63" stroke="hsl(228.5, 77.2%, 51.5%)" stroke-width="1.5"></path><path d="M-95.29 649.02L-95.29 649.02" stroke="hsl(228.5, 77.2%, 51.5%)" stroke-width="1.5"></path><path d="M-95.29 649.02L38.83 515.65" stroke="hsl(228.5, 77.2%, 51.5%)" stroke-width="1.5"></path><path d="M38.83 515.65L38.83 515.65" stroke="hsl(228.5, 77.2%, 51.5%)" stroke-width="1.5"></path><path d="M38.83 515.65L190.75 553.63" stroke="hsl(228.5, 77.2%, 51.5%)" stroke-width="1.5"></path><path d="M38.83 515.65L94.77 669.91" stroke="hsl(228.5, 77.2%, 51.5%)" stroke-width="1.5"></path><path d="M38.83 515.65L205 651.84" stroke="hsl(228.5, 77.2%, 51.5%)" stroke-width="1.5"></path><path d="M94.77 669.91L94.77 669.91" stroke="hsl(228.5, 77.2%, 51.5%)" stroke-width="1.5"></path><path d="M94.77 669.91L205 651.84" stroke="hsl(228.5, 77.2%, 51.5%)" stroke-width="1.5"></path><path d="M94.77 669.91L190.75 553.63" stroke="hsl(228.5, 77.2%, 51.5%)" stroke-width="1.5"></path><path d="M94.77 669.91L-95.29 649.02" stroke="hsl(228.5, 77.2%, 51.5%)" stroke-width="1.5"></path><path d="M190.75 553.63L190.75 553.63" stroke="hsl(228.5, 77.2%, 51.5%)" stroke-width="1.5"></path><path d="M190.75 553.63L205 651.84" stroke="hsl(228.5, 77.2%, 51.5%)" stroke-width="1.5"></path><path d="M190.75 553.63L404.81 488.06" stroke="hsl(228.5, 77.2%, 51.5%)" stroke-width="1.5"></path><path d="M190.75 553.63L378.24 711.44" stroke="hsl(228.5, 77.2%, 51.5%)" stroke-width="1.5"></path><path d="M205 651.84L205 651.84" stroke="hsl(228.5, 77.2%, 51.5%)" stroke-width="1.5"></path><path d="M205 651.84L378.24 711.44" stroke="hsl(228.5, 77.2%, 51.5%)" stroke-width="1.5"></path><path d="M205 651.84L404.81 488.06" stroke="hsl(228.5, 77.2%, 51.5%)" stroke-width="1.5"></path><path d="M205 651.84L-95.29 649.02" stroke="hsl(228.5, 77.2%, 51.5%)" stroke-width="1.5"></path><path d="M404.81 488.06L404.81 488.06" stroke="hsl(228.5, 77.2%, 51.5%)" stroke-width="1.5"></path><path d="M404.81 488.06L556.92 554.38" stroke="hsl(228.5, 77.2%, 51.5%)" stroke-width="1.5"></path><path d="M378.24 711.44L378.24 711.44" stroke="hsl(228.5, 77.2%, 51.5%)" stroke-width="1.5"></path><path d="M378.24 711.44L404.81 488.06" stroke="hsl(228.5, 77.2%, 51.5%)" stroke-width="1.5"></path><path d="M378.24 711.44L556.92 554.38" stroke="hsl(228.5, 77.2%, 51.5%)" stroke-width="1.5"></path><path d="M556.92 554.38L556.92 554.38" stroke="hsl(228.5, 77.2%, 51.5%)" stroke-width="1.5"></path><path d="M556.92 554.38L668.81 640.72" stroke="hsl(228.5, 77.2%, 51.5%)" stroke-width="1.5"></path><path d="M648.17 372.34L648.17 372.34" stroke="hsl(228.5, 77.2%, 51.5%)" stroke-width="1.5"></path><path d="M648.17 372.34L842.75 365.26" stroke="hsl(228.5, 77.2%, 51.5%)" stroke-width="1.5"></path><path d="M648.17 372.34L556.92 554.38" stroke="hsl(228.5, 77.2%, 51.5%)" stroke-width="1.5"></path><path d="M668.81 640.72L668.81 640.72" stroke="hsl(228.5, 77.2%, 51.5%)" stroke-width="1.5"></path><path d="M668.81 640.72L811.14 653.59" stroke="hsl(228.5, 77.2%, 51.5%)" stroke-width="1.5"></path><path d="M668.81 640.72L516.54 689.99" stroke="hsl(228.5, 77.2%, 51.5%)" stroke-width="1.5"></path><path d="M668.81 640.72L648.17 372.34" stroke="hsl(228.5, 77.2%, 51.5%)" stroke-width="1.5"></path><path d="M668.81 640.72L378.24 711.44" stroke="hsl(228.5, 77.2%, 51.5%)" stroke-width="1.5"></path><path d="M842.75 365.26L842.75 365.26" stroke="hsl(228.5, 77.2%, 51.5%)" stroke-width="1.5"></path><path d="M842.75 365.26L981.94 359.09" stroke="hsl(228.5, 77.2%, 51.5%)" stroke-width="1.5"></path><path d="M842.75 365.26L954.1 546.07" stroke="hsl(228.5, 77.2%, 51.5%)" stroke-width="1.5"></path><path d="M811.14 653.59L811.14 653.59" stroke="hsl(228.5, 77.2%, 51.5%)" stroke-width="1.5"></path><path d="M811.14 653.59L954.1 546.07" stroke="hsl(228.5, 77.2%, 51.5%)" stroke-width="1.5"></path><path d="M811.14 653.59L556.92 554.38" stroke="hsl(228.5, 77.2%, 51.5%)" stroke-width="1.5"></path><path d="M811.14 653.59L842.75 365.26" stroke="hsl(228.5, 77.2%, 51.5%)" stroke-width="1.5"></path><path d="M981.94 359.09L981.94 359.09" stroke="hsl(228.5, 77.2%, 51.5%)" stroke-width="1.5"></path><path d="M981.94 359.09L1092.72 355.54" stroke="hsl(228.5, 77.2%, 51.5%)" stroke-width="1.5"></path><path d="M954.1 546.07L954.1 546.07" stroke="hsl(228.5, 77.2%, 51.5%)" stroke-width="1.5"></path><path d="M954.1 546.07L1101.27 561.93" stroke="hsl(228.5, 77.2%, 51.5%)" stroke-width="1.5"></path><path d="M954.1 546.07L981.94 359.09" stroke="hsl(228.5, 77.2%, 51.5%)" stroke-width="1.5"></path><path d="M1098.89 254.81L1098.89 254.81" stroke="hsl(228.5, 77.2%, 51.5%)" stroke-width="1.5"></path><path d="M1098.89 254.81L1092.72 355.54" stroke="hsl(228.5, 77.2%, 51.5%)" stroke-width="1.5"></path><path d="M1092.72 355.54L1092.72 355.54" stroke="hsl(228.5, 77.2%, 51.5%)" stroke-width="1.5"></path><path d="M1092.72 355.54L1276.87 402.58" stroke="hsl(228.5, 77.2%, 51.5%)" stroke-width="1.5"></path><path d="M1092.72 355.54L1101.27 561.93" stroke="hsl(228.5, 77.2%, 51.5%)" stroke-width="1.5"></path><path d="M1092.72 355.54L1259.63 192.89" stroke="hsl(228.5, 77.2%, 51.5%)" stroke-width="1.5"></path><path d="M1101.27 561.93L1101.27 561.93" stroke="hsl(228.5, 77.2%, 51.5%)" stroke-width="1.5"></path><path d="M1158.67 700.55L1158.67 700.55" stroke="hsl(228.5, 77.2%, 51.5%)" stroke-width="1.5"></path><path d="M1158.67 700.55L1101.27 561.93" stroke="hsl(228.5, 77.2%, 51.5%)" stroke-width="1.5"></path><path d="M1287.87 112.42L1287.87 112.42" stroke="hsl(228.5, 77.2%, 51.5%)" stroke-width="1.5"></path><path d="M1287.87 112.42L1259.63 192.89" stroke="hsl(228.5, 77.2%, 51.5%)" stroke-width="1.5"></path><path d="M1287.87 112.42L1435.72 82.71" stroke="hsl(228.5, 77.2%, 51.5%)" stroke-width="1.5"></path><path d="M1287.87 112.42L1305.74 -52.24" stroke="hsl(228.5, 77.2%, 51.5%)" stroke-width="1.5"></path><path d="M1287.87 112.42L1452.78 -44.09" stroke="hsl(228.5, 77.2%, 51.5%)" stroke-width="1.5"></path><path d="M1287.87 112.42L1098.89 254.81" stroke="hsl(228.5, 77.2%, 51.5%)" stroke-width="1.5"></path><path d="M1287.87 112.42L1276.87 402.58" stroke="hsl(228.5, 77.2%, 51.5%)" stroke-width="1.5"></path><path d="M1259.63 192.89L1259.63 192.89" stroke="hsl(228.5, 77.2%, 51.5%)" stroke-width="1.5"></path><path d="M1259.63 192.89L1098.89 254.81" stroke="hsl(228.5, 77.2%, 51.5%)" stroke-width="1.5"></path><path d="M1259.63 192.89L1435.72 82.71" stroke="hsl(228.5, 77.2%, 51.5%)" stroke-width="1.5"></path><path d="M1259.63 192.89L1276.87 402.58" stroke="hsl(228.5, 77.2%, 51.5%)" stroke-width="1.5"></path><path d="M1302.36 553.76L1302.36 553.76" stroke="hsl(228.5, 77.2%, 51.5%)" stroke-width="1.5"></path><path d="M1302.36 553.76L1402.33 546.5" stroke="hsl(228.5, 77.2%, 51.5%)" stroke-width="1.5"></path><path d="M1452.78 -44.09L1452.78 -44.09" stroke="hsl(228.5, 77.2%, 51.5%)" stroke-width="1.5"></path><path d="M1452.78 -44.09L1435.72 82.71" stroke="hsl(228.5, 77.2%, 51.5%)" stroke-width="1.5"></path><path d="M1452.78 -44.09L1575.94 -101.68" stroke="hsl(228.5, 77.2%, 51.5%)" stroke-width="1.5"></path><path d="M1452.78 -44.09L1592.28 194.39" stroke="hsl(228.5, 77.2%, 51.5%)" stroke-width="1.5"></path><path d="M1435.72 82.71L1435.72 82.71" stroke="hsl(228.5, 77.2%, 51.5%)" stroke-width="1.5"></path><path d="M1435.72 82.71L1305.74 -52.24" stroke="hsl(228.5, 77.2%, 51.5%)" stroke-width="1.5"></path><path d="M1435.72 82.71L1592.28 194.39" stroke="hsl(228.5, 77.2%, 51.5%)" stroke-width="1.5"></path><path d="M1391.41 390.9L1391.41 390.9" stroke="hsl(228.5, 77.2%, 51.5%)" stroke-width="1.5"></path><path d="M1391.41 390.9L1402.33 546.5" stroke="hsl(228.5, 77.2%, 51.5%)" stroke-width="1.5"></path><path d="M1391.41 390.9L1302.36 553.76" stroke="hsl(228.5, 77.2%, 51.5%)" stroke-width="1.5"></path><path d="M1391.41 390.9L1259.63 192.89" stroke="hsl(228.5, 77.2%, 51.5%)" stroke-width="1.5"></path><path d="M1391.41 390.9L1608.98 556.24" stroke="hsl(228.5, 77.2%, 51.5%)" stroke-width="1.5"></path><path d="M1402.33 546.5L1402.33 546.5" stroke="hsl(228.5, 77.2%, 51.5%)" stroke-width="1.5"></path><path d="M1402.33 546.5L1458.74 668.06" stroke="hsl(228.5, 77.2%, 51.5%)" stroke-width="1.5"></path><path d="M1458.74 668.06L1458.74 668.06" stroke="hsl(228.5, 77.2%, 51.5%)" stroke-width="1.5"></path><path d="M1458.74 668.06L1589.56 699.6" stroke="hsl(228.5, 77.2%, 51.5%)" stroke-width="1.5"></path><path d="M1575.94 -101.68L1575.94 -101.68" stroke="hsl(228.5, 77.2%, 51.5%)" stroke-width="1.5"></path><path d="M1575.94 -101.68L1435.72 82.71" stroke="hsl(228.5, 77.2%, 51.5%)" stroke-width="1.5"></path><path d="M1592.28 194.39L1592.28 194.39" stroke="hsl(228.5, 77.2%, 51.5%)" stroke-width="1.5"></path><path d="M1592.28 194.39L1391.41 390.9" stroke="hsl(228.5, 77.2%, 51.5%)" stroke-width="1.5"></path><path d="M1592.28 194.39L1575.94 -101.68" stroke="hsl(228.5, 77.2%, 51.5%)" stroke-width="1.5"></path><path d="M1608.98 556.24L1608.98 556.24" stroke="hsl(228.5, 77.2%, 51.5%)" stroke-width="1.5"></path><path d="M1608.98 556.24L1589.56 699.6" stroke="hsl(228.5, 77.2%, 51.5%)" stroke-width="1.5"></path><path d="M1608.98 556.24L1458.74 668.06" stroke="hsl(228.5, 77.2%, 51.5%)" stroke-width="1.5"></path><path d="M1608.98 556.24L1402.33 546.5" stroke="hsl(228.5, 77.2%, 51.5%)" stroke-width="1.5"></path><path d="M1608.98 556.24L1302.36 553.76" stroke="hsl(228.5, 77.2%, 51.5%)" stroke-width="1.5"></path><path d="M1608.98 556.24L1592.28 194.39" stroke="hsl(228.5, 77.2%, 51.5%)" stroke-width="1.5"></path><path d="M1589.56 699.6L1589.56 699.6" stroke="hsl(228.5, 77.2%, 51.5%)" stroke-width="1.5"></path><path d="M1589.56 699.6L1402.33 546.5" stroke="hsl(228.5, 77.2%, 51.5%)" stroke-width="1.5"></path><path d="M1589.56 699.6L1302.36 553.76" stroke="hsl(228.5, 77.2%, 51.5%)" stroke-width="1.5"></path><path d="M1589.56 699.6L1251.15 652.44" stroke="hsl(228.5, 77.2%, 51.5%)" stroke-width="1.5"></path><path d="M1589.56 699.6L1391.41 390.9" stroke="hsl(228.5, 77.2%, 51.5%)" stroke-width="1.5"></path><circle r="25" cx="516.54" cy="689.99" fill="url(#SvgjsRadialGradient1001)"></circle><circle r="25" cx="651.5" cy="541.3" fill="url(#SvgjsRadialGradient1001)"></circle><circle r="25" cx="1012.3" cy="666.33" fill="url(#SvgjsRadialGradient1001)"></circle><circle r="25" cx="1305.74" cy="-52.24" fill="url(#SvgjsRadialGradient1001)"></circle><circle r="25" cx="1276.87" cy="402.58" fill="url(#SvgjsRadialGradient1001)"></circle><circle r="25" cx="1251.15" cy="652.44" fill="url(#SvgjsRadialGradient1001)"></circle><circle r="25" cx="1594.99" cy="68.13" fill="url(#SvgjsRadialGradient1001)"></circle><circle r="5" cx="-77.51" cy="537.35" fill="#8b9ad9"></circle><circle r="5" cx="-95.29" cy="649.02" fill="#8b9ad9"></circle><circle r="5" cx="38.83" cy="515.65" fill="#8b9ad9"></circle><circle r="5" cx="94.77" cy="669.91" fill="#8b9ad9"></circle><circle r="5" cx="190.75" cy="553.63" fill="#8b9ad9"></circle><circle r="5" cx="205" cy="651.84" fill="#8b9ad9"></circle><circle r="5" cx="404.81" cy="488.06" fill="#8b9ad9"></circle><circle r="5" cx="378.24" cy="711.44" fill="#8b9ad9"></circle><circle r="5" cx="556.92" cy="554.38" fill="#8b9ad9"></circle><circle r="5" cx="648.17" cy="372.34" fill="#8b9ad9"></circle><circle r="5" cx="668.81" cy="640.72" fill="#8b9ad9"></circle><circle r="5" cx="842.75" cy="365.26" fill="#8b9ad9"></circle><circle r="5" cx="811.14" cy="653.59" fill="#8b9ad9"></circle><circle r="5" cx="981.94" cy="359.09" fill="#8b9ad9"></circle><circle r="5" cx="954.1" cy="546.07" fill="#8b9ad9"></circle><circle r="5" cx="1098.89" cy="254.81" fill="#8b9ad9"></circle><circle r="5" cx="1092.72" cy="355.54" fill="#8b9ad9"></circle><circle r="5" cx="1101.27" cy="561.93" fill="#8b9ad9"></circle><circle r="5" cx="1158.67" cy="700.55" fill="#8b9ad9"></circle><circle r="5" cx="1287.87" cy="112.42" fill="#8b9ad9"></circle><circle r="5" cx="1259.63" cy="192.89" fill="#8b9ad9"></circle><circle r="5" cx="1302.36" cy="553.76" fill="#8b9ad9"></circle><circle r="5" cx="1452.78" cy="-44.09" fill="#8b9ad9"></circle><circle r="5" cx="1435.72" cy="82.71" fill="#8b9ad9"></circle><circle r="5" cx="1391.41" cy="390.9" fill="#8b9ad9"></circle><circle r="5" cx="1402.33" cy="546.5" fill="#8b9ad9"></circle><circle r="5" cx="1458.74" cy="668.06" fill="#8b9ad9"></circle><circle r="5" cx="1575.94" cy="-101.68" fill="#8b9ad9"></circle><circle r="5" cx="1592.28" cy="194.39" fill="#8b9ad9"></circle><circle r="5" cx="1608.98" cy="556.24" fill="#8b9ad9"></circle><circle r="5" cx="1589.56" cy="699.6" fill="#8b9ad9"></circle></g><defs><mask id="SvgjsMask1000"><rect width="1440" height="560" fill="#ffffff"></rect></mask><radialGradient id="SvgjsRadialGradient1001"><stop stop-color="#ffffff" offset="0.1"></stop><stop stop-color="#1735b3" offset="0.2"></stop><stop stop-color="rgba(23, 53, 179, 0)" offset="1"></stop></radialGradient></defs></svg>